<?xml version="1.0" encoding="UTF-8" standalone="no"?>
<!-- Created with Inkscape (http://www.inkscape.org/) -->

<svg
   xmlns:dc="http://purl.org/dc/elements/1.1/"
   xmlns:cc="http://creativecommons.org/ns#"
   xmlns:rdf="http://www.w3.org/1999/02/22-rdf-syntax-ns#"
   xmlns:svg="http://www.w3.org/2000/svg"
   xmlns="http://www.w3.org/2000/svg"
   xmlns:sodipodi="http://sodipodi.sourceforge.net/DTD/sodipodi-0.dtd"
   xmlns:inkscape="http://www.inkscape.org/namespaces/inkscape"
   width="160"
   height="160"
   id="svg2"
   version="1.1"
   inkscape:version="0.48.4 r9939"
   sodipodi:docname="favicon2.svg">
  <defs
     id="defs4" />
  <sodipodi:namedview
     id="base"
     pagecolor="#ffffff"
     bordercolor="#666666"
     borderopacity="1.0"
     inkscape:pageopacity="0.0"
     inkscape:pageshadow="2"
     inkscape:zoom="2.8"
     inkscape:cx="95.220316"
     inkscape:cy="80.475184"
     inkscape:document-units="px"
     inkscape:current-layer="layer1"
     showgrid="false"
     fit-margin-top="0"
     fit-margin-left="0"
     fit-margin-right="0"
     fit-margin-bottom="0"
     inkscape:window-width="1366"
     inkscape:window-height="748"
     inkscape:window-x="-2"
     inkscape:window-y="-3"
     inkscape:window-maximized="1" />
  <metadata
     id="metadata7">
    <rdf:RDF>
      <cc:Work
         rdf:about="">
        <dc:format>image/svg+xml</dc:format>
        <dc:type
           rdf:resource="http://purl.org/dc/dcmitype/StillImage" />
        <dc:title></dc:title>
      </cc:Work>
    </rdf:RDF>
  </metadata>
  <g
     inkscape:label="Camada 1"
     inkscape:groupmode="layer"
     id="layer1"
     transform="translate(-261.57127,-257.10311)">
    <path
       sodipodi:type="star"
       style="fill:#edc140;fill-opacity:1;fill-rule:nonzero;stroke:#594b42;stroke-width:8.51900005;stroke-linecap:butt;stroke-linejoin:bevel;stroke-miterlimit:4;stroke-opacity:1;stroke-dasharray:none;stroke-dashoffset:0"
       id="path3991"
       sodipodi:sides="6"
       sodipodi:cx="220.71429"
       sodipodi:cy="109.32847"
       sodipodi:r1="77.104996"
       sodipodi:r2="40.341335"
       sodipodi:arg1="1.0471976"
       sodipodi:arg2="1.5707963"
       inkscape:flatsided="true"
       inkscape:rounded="0"
       inkscape:randomized="0"
       d="m 259.26679,176.10336 -77.105,-1e-5 -38.55249,-66.77489 38.5525,-66.774879 77.105,4e-6 38.55249,66.774885 z"
       transform="matrix(0.96444847,0,0,0.96444847,128.70357,230.66143)" />
    <path
       style="fill:#f2dc9e"
       d="m 321.41046,342.83964 c -0.81309,0.0684 -1.43764,0.14898 -1.9375,0.28125 -0.49986,0.13227 -0.89228,0.31476 -1.1875,0.625 -0.29522,0.31024 -0.48833,0.74143 -0.6875,1.34375 -0.19917,0.60232 -0.38203,1.39772 -0.59375,2.40625 -0.27396,1.30506 -0.41403,2.32627 -0.375,3.15625 0.039,0.82998 0.25311,1.46831 0.6875,1.90625 0.43439,0.43794 1.08786,0.68355 2,0.8125 0.91214,0.12895 2.09024,0.12824 3.5625,0.0312 0.93746,-0.0618 1.6554,-0.13507 2.21875,-0.25 0.56335,-0.11493 0.96636,-0.28279 1.28125,-0.5625 0.31489,-0.27971 0.52666,-0.66263 0.71875,-1.21875 0.19209,-0.55612 0.36756,-1.27462 0.5625,-2.21875 0.25103,-1.2158 0.30614,-2.23929 0.1875,-3.09375 -0.11864,-0.85446 -0.42996,-1.54996 -0.9375,-2.0625 -0.50754,-0.51254 -1.20932,-0.8412 -2.125,-1.03125 -0.91568,-0.19005 -2.03195,-0.23801 -3.375,-0.125 z"
       id="path3939"
       inkscape:connector-curvature="0" />
    <path
       style="fill:#f2dc9e"
       d="m 328.69171,324.27714 c -0.89549,0.0442 -1.66795,0.21116 -2.3125,0.53125 -0.64455,0.32009 -1.16638,0.77799 -1.625,1.40625 -0.45862,0.62826 -0.8498,1.40627 -1.1875,2.375 -0.3105,0.89071 -0.42925,1.64859 -0.375,2.28125 0.0543,0.63266 0.27107,1.16226 0.71875,1.5625 0.44768,0.40024 1.09898,0.68155 1.96875,0.875 0.86977,0.19345 1.96071,0.3002 3.28125,0.3125 1.3131,0.0122 2.24725,-0.14384 3.03125,-0.625 0.784,-0.48116 1.42183,-1.28656 2.21875,-2.59375 0.64048,-1.05059 1.09506,-1.90598 1.34375,-2.59375 0.24869,-0.68777 0.31189,-1.23188 0.125,-1.65625 -0.18689,-0.42437 -0.61501,-0.73963 -1.28125,-1 -0.66624,-0.26037 -1.59189,-0.46048 -2.78125,-0.65625 -1.21145,-0.19941 -2.22951,-0.26295 -3.125,-0.21875 z"
       id="path3935"
       inkscape:connector-curvature="0" />
    <path
       style="fill:#f2dc9e"
       d="m 344.91046,307.05839 c -1.30837,0.0272 -2.64561,0.26698 -3.96875,0.75 -1.32314,0.48302 -2.64708,1.18842 -3.875,2.125 -1.01723,0.77588 -1.7997,1.43826 -2.375,2 -0.5753,0.56174 -0.9443,1.04797 -1.09375,1.4375 -0.14945,0.38953 -0.0728,0.67825 0.1875,0.9375 0.2603,0.25925 0.72103,0.48535 1.375,0.65625 0.90805,0.2373 1.84137,0.39378 2.84375,0.46875 1.00238,0.075 2.07016,0.0578 3.1875,-0.0312 2.23468,-0.17802 4.71298,-0.68746 7.53125,-1.53125 l 5.84375,-1.75 -2.65625,-2.46875 c -0.9488,-0.89135 -2.06641,-1.56906 -3.25,-2 -1.18359,-0.43094 -2.44163,-0.62093 -3.75,-0.59375 z"
       id="path3931"
       inkscape:connector-curvature="0" />
    <path
       inkscape:connector-curvature="0"
       id="path3127"
       d="m 311.14804,360.6964 c -8.38412,-2.75664 -9.18782,-4.04093 -7.70667,-12.31514 3.92276,-21.91389 18.66026,-48.02217 30.28352,-53.64889 5.46483,-2.64548 9.90203,-2.64548 15.36686,0 11.62326,5.62672 26.36076,31.735 30.28352,53.64889 1.5096,8.43317 0.76306,9.52058 -8.70628,12.6816 -20.92431,5.49482 -41.22437,5.16567 -59.52095,-0.36646 z m 23.26028,-9.05283 c 5.13776,-5.5652 8.89184,-5.53314 14.11126,0.12051 l 3.80404,4.12052 5.79235,-0.68751 c 3.18579,-0.37813 7.5386,-1.14053 9.67291,-1.69422 l 3.88056,-1.0067 -0.60398,-5.09973 c -0.3322,-2.80484 -1.01265,-5.50838 -1.51211,-6.00784 -0.54417,-0.54417 -5.03526,-0.21802 -11.20586,0.81377 -11.63147,1.94493 -27.15418,1.542 -37.43917,-0.97182 -7.31733,-1.78847 -8.29265,-1.13333 -9.15522,6.14969 l -0.6059,5.11593 3.88056,1.00718 c 12.0742,3.13381 15.03259,2.84992 19.38056,-1.85978 z m 24,-17.2994 c 5.81321,-1.07861 6.52859,-1.4699 6.7706,-3.70332 0.14882,-1.3735 -0.64387,-3.9792 -1.76155,-5.79043 -1.90476,-3.08673 -2.26646,-3.24343 -5.77059,-2.5 -2.05615,0.43623 -9.36346,0.79315 -16.23846,0.79315 -6.875,0 -14.18231,-0.35692 -16.23846,-0.79315 -3.50644,-0.74392 -3.86307,-0.58876 -5.74626,2.5 -1.10429,1.81123 -2.00949,4.27338 -2.01154,5.47143 -0.003,1.84889 0.86577,2.35707 5.74626,3.36058 3.1625,0.65026 6.2,1.32201 6.75,1.49277 2.64786,0.8221 22.74943,0.23596 28.5,-0.83103 z m -3.63522,-19.28709 c 2.73412,-1.04917 1.86761,-3.27636 -3.27577,-8.41974 -7.89428,-7.89428 -12.28374,-7.89428 -20.17802,0 -2.70105,2.70105 -4.91099,5.59885 -4.91099,6.43956 0,1.44233 0.98701,1.86062 7,2.96658 3.17801,0.58453 19.19853,-0.15513 21.36478,-0.9864 z"
       style="fill:#594b42"
       sodipodi:nodetypes="cssssccsscsscssssscssssssssscsssssssss" />
  </g>
</svg>
