<?xml version="1.0" encoding="UTF-8" standalone="no"?>
<svg id="svg2" xmlns:rdf="http://www.w3.org/1999/02/22-rdf-syntax-ns#" xmlns="http://www.w3.org/2000/svg" height="244.52" width="577.62" version="1.1" xmlns:cc="http://creativecommons.org/ns#" xmlns:xlink="http://www.w3.org/1999/xlink" viewBox="0 0 462.09966 195.61945" xmlns:dc="http://purl.org/dc/elements/1.1/">
 <defs id="defs4">
  <g id="g6">
   <symbol id="ar" overflow="visible">
    <path id="path12" d="m0.8125 0v-7.875h1.5781l1.8594 5.5781c0.16406 0.52344 0.28906 0.90625 0.375 1.1562 0.09375-0.28125 0.23438-0.69531 0.42188-1.25l1.875-5.4844h1.4062v7.875h-1v-6.5938l-2.2969 6.5939h-0.9374l-2.2657-6.7031v6.7031z"/>
   </symbol>
   <symbol id="f" overflow="visible">
    <path id="path15" d="m4.4531-0.70312c-0.3672 0.30468-0.7148 0.51562-1.0469 0.64062-0.3242 0.125-0.6796 0.1875-1.0624 0.1875-0.625 0-1.1094-0.14844-1.4531-0.45312-0.33594-0.3125-0.5-0.70312-0.5-1.1719 0-0.28125 0.0625-0.53516 0.1875-0.76562 0.13281-0.22656 0.30078-0.41016 0.5-0.54688 0.207-0.1445 0.4413-0.2539 0.703-0.3281 0.1876-0.0508 0.4727-0.0977 0.8594-0.1406 0.7813-0.0938 1.3516-0.2071 1.7188-0.3438 0.0078-0.125 0.0156-0.207 0.0156-0.25 0-0.3945-0.0938-0.6719-0.2812-0.8281-0.2422-0.2188-0.6055-0.3281-1.0938-0.3281-0.46094 0-0.79688 0.078125-1.0156 0.23438-0.21094 0.15625-0.36719 0.4375-0.46875 0.84375l-0.9531-0.125c0.08203-0.4063 0.22266-0.7344 0.42188-0.9844 0.19532-0.25 0.48442-0.4375 0.85942-0.5625 0.375-0.13281 0.80469-0.20312 1.2969-0.20312 0.48828 0 0.88281 0.058594 1.1875 0.17188 0.30078 0.11719 0.51953 0.26172 0.65625 0.4375 0.14453 0.16797 0.25 0.38281 0.3125 0.64062 0.03125 0.16797 0.046875 0.46875 0.046875 0.90625v1.2812c0 0.89844 0.019531 1.4648 0.0625 1.7031 0.039062 0.24219 0.125 0.46875 0.25 0.6875h-1.0157c-0.1054-0.19531-0.1679-0.42969-0.1875-0.70312zm-0.09375-2.1562c-0.3438 0.1484-0.8711 0.2655-1.5782 0.3593-0.3984 0.0625-0.6796 0.1328-0.8437 0.2031-0.15625 0.0625-0.28125 0.16797-0.375 0.3125-0.09375 0.13672-0.14062 0.28906-0.14062 0.45312 0 0.26172 0.097656 0.48047 0.29688 0.65625 0.19531 0.16797 0.48438 0.25 0.85938 0.25s0.70312-0.082031 0.98438-0.25c0.28906-0.16406 0.50781-0.39062 0.65625-0.67188 0.09375-0.21875 0.14062-0.53906 0.14062-0.96875z"/>
   </symbol>
   <symbol id="u" overflow="visible">
    <path id="path18" d="m4.4531-2.0938 0.9375 0.125c-0.0937 0.6563-0.3594 1.1719-0.7968 1.5469-0.4297 0.36721-0.9493 0.5469-1.5626 0.5469-0.7812 0-1.414-0.25391-1.8906-0.76562-0.46872-0.50778-0.7031-1.2383-0.7031-2.1875 0-0.61328 0.097656-1.1484 0.29688-1.6094 0.20703-0.46875 0.51953-0.81641 0.9375-1.0469 0.41406-0.22656 0.86719-0.34375 1.3594-0.34375 0.61328 0 1.1172 0.15625 1.5156 0.46875 0.39453 0.3125 0.64844 0.75781 0.76562 1.3281l-0.95312 0.14062c-0.085937-0.375-0.24219-0.65625-0.46875-0.84375-0.2304-0.1953-0.5078-0.2968-0.8281-0.2968-0.48047 0-0.875 0.17969-1.1875 0.53125-0.30469 0.34375-0.45312 0.89062-0.45312 1.6406 0 0.77344 0.14453 1.3281 0.4375 1.6719 0.28906 0.34375 0.67578 0.51562 1.1562 0.51562 0.375 0 0.6875-0.11328 0.9375-0.34375 0.25781-0.22656 0.42578-0.58594 0.5-1.0781z"/>
   </symbol>
   <symbol id="r" overflow="visible">
    <path id="path21" d="m0.71875 0v-5.7031h0.85938v0.85938c0.22656-0.40625 0.4375-0.67188 0.625-0.79688s0.39062-0.1875 0.60938-0.1875c0.33203 0 0.66406 0.10547 1 0.3125l-0.3281 0.8906c-0.24219-0.13281-0.48047-0.20312-0.71875-0.20312-0.21094 0-0.39844 0.0625-0.5625 0.1875-0.16797 0.125-0.28906 0.30469-0.35938 0.53125-0.10547 0.34375-0.15625 0.71875-0.15625 1.125l-0.0001 2.9844z"/>
   </symbol>
   <symbol id="c" overflow="visible">
    <path id="path24" d="m0.35938-2.8594c0-1.0508 0.29688-1.832 0.89062-2.3438 0.48828-0.41406 1.0859-0.625 1.7969-0.625 0.78125 0 1.4141 0.25781 1.9062 0.76562 0.5 0.51172 0.75 1.2188 0.75 2.125 0 0.74219-0.10938 1.3242-0.32812 1.75-0.2188 0.41807-0.543 0.74229-0.9688 0.96885-0.4179 0.22656-0.871 0.34375-1.3593 0.34375-0.8047 0-1.4531-0.25391-1.9531-0.76562-0.49219-0.50781-0.73438-1.25-0.73438-2.2188zm1 0c0 0.74219 0.15625 1.293 0.46875 1.6562 0.32031 0.35547 0.72656 0.53125 1.2188 0.53125 0.47656 0 0.875-0.17969 1.1875-0.54688 0.32031-0.36328 0.48438-0.92188 0.48438-1.6719 0-0.69531-0.16406-1.2266-0.48438-1.5938-0.32422-0.36328-0.71875-0.54688-1.1875-0.54688-0.49219 0-0.89844 0.18359-1.2188 0.54688-0.3125 0.35547-0.46875 0.89844-0.46875 1.625z"/>
   </symbol>
   <symbol id="t" overflow="visible">
    <path id="path27" d="m-0.015625 0 3.0312-7.875h1.1094l3.2344 7.875h-1.1875l-0.9219-2.3906h-3.2969l-0.8593 2.3906zm2.2656-3.2344h2.6719l-0.8125-2.1875c-0.25-0.65625-0.4375-1.1953-0.5625-1.625-0.10547 0.5-0.24609 1-0.42188 1.5z"/>
   </symbol>
   <symbol id="q" overflow="visible">
    <path id="path30" d="m4.4219 0v-0.71875c-0.3555 0.5625-0.8867 0.84375-1.5938 0.84375-0.4492 0-0.8672-0.125-1.25-0.375-0.3867-0.25-0.68357-0.59766-0.8906-1.0469-0.21094-0.4453-0.3125-0.9609-0.3125-1.5469 0-0.57031 0.09375-1.0859 0.28125-1.5469 0.19531-0.46875 0.48438-0.82031 0.85938-1.0625 0.375-0.25 0.79688-0.375 1.2656-0.375 0.34375 0 0.64844 0.074219 0.92188 0.21875 0.26953 0.14844 0.48828 0.33594 0.65625 0.5625v-2.8281h0.96875v7.875zm-3.0469-2.8438c0 0.73047 0.14844 1.2773 0.45312 1.6406 0.3125 0.35547 0.67578 0.53125 1.0938 0.53125 0.42578 0 0.78516-0.17188 1.0781-0.51562 0.28906-0.34375 0.4375-0.86719 0.4375-1.5781 0-0.78125-0.15234-1.3516-0.45312-1.7188-0.293-0.3632-0.6641-0.5467-1.1094-0.5467-0.4297 0-0.7891 0.1796-1.0781 0.5312-0.2813 0.3438-0.4219 0.8984-0.4219 1.6562z"/>
   </symbol>
   <symbol id="ak" overflow="visible">
    <path id="path33" d="m6.4688-2.7656 1.0468 0.2656c-0.21875 0.85547-0.61719 1.5117-1.1875 1.9688-0.5625 0.44917-1.2578 0.67182-2.0781 0.67182-0.8555 0-1.5469-0.17187-2.0781-0.51562-0.5313-0.35156-0.9375-0.8594-1.2188-1.5156-0.27341-0.6563-0.40622-1.3594-0.40622-2.1094 0-0.8125 0.15625-1.5234 0.46875-2.1406 0.3125-0.61328 0.75391-1.0781 1.3281-1.3906 0.58203-0.32031 1.2227-0.48438 1.9219-0.48438 0.78906 0 1.4531 0.20312 1.9844 0.60938 0.53906 0.39844 0.91406 0.96094 1.125 1.6875l-1.0312 0.25c-0.1797-0.5704-0.4454-0.9883-0.7969-1.2501-0.3438-0.2578-0.7774-0.3906-1.2969-0.3906-0.61719 0-1.125 0.14844-1.5312 0.4375-0.40625 0.28125-0.69531 0.66797-0.85938 1.1562-0.1563 0.4923-0.2344 0.9962-0.2344 1.5157 0 0.66797 0.09375 1.25 0.28125 1.75 0.19531 0.5 0.5 0.875 0.90625 1.125 0.41406 0.25 0.86328 0.375 1.3438 0.375 0.58203 0 1.0781-0.16406 1.4844-0.5 0.40625-0.34375 0.67969-0.84766 0.82812-1.5156z"/>
   </symbol>
   <symbol id="d" overflow="visible">
    <path id="path36" d="m0.71875 0v-5.7031h0.875v0.79688c0.17578-0.28125 0.41016-0.50391 0.70312-0.67188 0.30078-0.16406 0.64062-0.25 1.0156-0.25 0.42578 0 0.77344 0.089844 1.0469 0.26562 0.26953 0.16797 0.46094 0.41406 0.57812 0.73438 0.44531-0.66406 1.0312-1 1.75-1 0.57031 0 1.0078 0.15625 1.3125 0.46875 0.30078 0.3125 0.45312 0.79297 0.45312 1.4375v3.9218h-0.9531v-3.5938c0-0.3828-0.0312-0.6601-0.0938-0.8281-0.0624-0.1758-0.1796-0.3164-0.3437-0.4219-0.168-0.1015-0.3594-0.1562-0.5781-0.1562-0.4063 0-0.7461 0.1367-1.0156 0.4062-0.2618 0.2735-0.3907 0.6993-0.3907 1.2813v3.3125h-0.96875v-3.7031c0-0.42578-0.078125-0.75-0.23438-0.96875-0.1562-0.2188-0.4141-0.3282-0.7656-0.3282-0.2735 0-0.5274 0.0742-0.7656 0.2188-0.23047 0.14844-0.39844 0.35938-0.5 0.64062-0.10547 0.27344-0.15625 0.66797-0.15625 1.1875l-0.0001 2.9531z"/>
   </symbol>
   <symbol id="k" overflow="visible">
    <path id="path39" d="m0.71875 0v-5.7031h0.875v0.8125c0.41406-0.625 1.0195-0.9375 1.8125-0.9375 0.34375 0 0.66016 0.0625 0.95312 0.1875 0.289 0.1172 0.5039 0.2773 0.6406 0.4844 0.14453 0.19922 0.25 0.43359 0.3125 0.70312 0.03125 0.1875 0.046875 0.50781 0.046875 0.95312v3.5h-0.96875v-3.4688c0-0.39453-0.039063-0.6875-0.10938-0.875-0.0742-0.1953-0.2109-0.3515-0.4062-0.4687-0.1875-0.125-0.4141-0.1875-0.6719-0.1875-0.40625 0-0.76172 0.13281-1.0625 0.39062-0.30469 0.26172-0.45312 0.76172-0.45312 1.5v3.1094z"/>
   </symbol>
   <symbol id="j" overflow="visible">
    <path id="path42" d="m3.0938 0-3.0469-7.875h1.125l2.0469 5.7188c0.16406 0.46094 0.30469 0.89062 0.42188 1.2969 0.11328-0.4375 0.25391-0.86719 0.42188-1.2969l2.1249-5.7188h1.0625l-3.0781 7.875z"/>
   </symbol>
   <symbol id="b" overflow="visible">
    <path id="path45" d="m0.73438-6.7656v-1.1094h0.96875v1.1094zm0 6.7656v-5.7031h0.96875v5.7031z"/>
   </symbol>
   <symbol id="a" overflow="visible">
    <path id="path48" d="m4.625-1.8438 1 0.125c-0.1562 0.586-0.4492 1.0391-0.875 1.3594-0.4297 0.32424-0.9688 0.4844-1.625 0.4844-0.8359 0-1.4961-0.25391-1.9844-0.76562-0.49216-0.50778-0.73435-1.2266-0.73435-2.1563 0-0.96875 0.24219-1.7109 0.73438-2.2344 0.5-0.53125 1.1406-0.79688 1.9219-0.79688 0.76953 0 1.3945 0.26172 1.875 0.78125 0.47656 0.51172 0.71875 1.2422 0.71875 2.1875v0.25h-4.25c0.03125 0.625 0.20312 1.1055 0.51562 1.4375 0.32031 0.33594 0.72266 0.5 1.2031 0.5 0.35156 0 0.65625-0.085937 0.90625-0.26562 0.25-0.1875 0.44531-0.48828 0.59375-0.90625zm-3.1719-1.5625h3.1875c-0.0429-0.4765-0.164-0.8359-0.3594-1.0781-0.3124-0.3633-0.7148-0.5468-1.2031-0.5468-0.44922 0-0.82422 0.15234-1.125 0.45312-0.30469 0.29297-0.46875 0.68359-0.5 1.1719z"/>
   </symbol>
   <symbol id="i" overflow="visible">
    <path id="path51" d="m1.7812 0-1.75-5.7031h1l0.90625 3.2969 0.34375 1.2188c0.0079-0.0626 0.1094-0.4532 0.2969-1.172l0.90625-3.3438h0.98438l0.85938 3.3125 0.28125 1.0781 0.32812-1.0938 0.98438-3.2969h0.9375l-1.7812 5.7033h-1l-0.9219-3.4219-0.2187-0.9687-1.1563 4.3906z"/>
   </symbol>
   <symbol id="h" overflow="visible">
    <path id="path54" d="m2.8438-0.85938 0.125 0.84375c-0.2735 0.062505-0.5118 0.093755-0.7188 0.093755-0.3555 0-0.6328-0.058594-0.8281-0.17188-0.1875-0.11328-0.3242-0.2578-0.4063-0.4375-0.07419-0.17577-0.10935-0.55464-0.10935-1.1406v-3.2812h-0.71875v-0.75h0.71875v-1.4062l0.95312-0.59375v2h0.98438v0.75h-0.98438v3.3438c0 0.27344 0.015625 0.44922 0.046875 0.53125 0.039062 0.074219 0.097656 0.13672 0.17188 0.1875 0.082031 0.042969 0.19141 0.0625 0.32812 0.0625 0.11328 0 0.25781-0.007813 0.4375-0.03125z"/>
   </symbol>
   <symbol id="z" overflow="visible">
    <path id="path57" d="m0.90625 0v-7.875h5.3125v0.9375h-4.2812v2.4375h3.7031v0.92188h-3.7031v3.5781z"/>
   </symbol>
   <symbol id="g" overflow="visible">
    <path id="path60" d="m0.70312 0v-7.875h0.96875v7.875z"/>
   </symbol>
   <symbol id="s" overflow="visible">
    <path id="path63" d="m0.34375-1.7031 0.95312-0.15625c0.050781 0.38672 0.19531 0.68359 0.4375 0.89062 0.25 0.19922 0.59375 0.29688 1.0312 0.29688 0.44531 0 0.77344-0.085937 0.98438-0.26562 0.21875-0.17578 0.32812-0.39062 0.32812-0.64062 0-0.21875-0.09375-0.39062-0.28125-0.51562-0.1367-0.082-0.4649-0.1914-0.9844-0.3281-0.7109-0.1758-1.2031-0.3281-1.4844-0.4531-0.2734-0.1328-0.48044-0.3164-0.62498-0.5469-0.13671-0.2265-0.20312-0.4843-0.20312-0.7656 0-0.2578 0.05469-0.4922 0.17188-0.7031 0.11328-0.2188 0.27343-0.3985 0.48432-0.5469 0.1446-0.1133 0.3477-0.207 0.6094-0.2813 0.2578-0.0703 0.5352-0.1093 0.8282-0.1093 0.44531 0 0.83594 0.0625 1.1719 0.1875 0.34375 0.125 0.59375 0.30469 0.75 0.53125 0.16406 0.21875 0.28125 0.51172 0.34375 0.875l-0.9375 0.125c-0.0547-0.2891-0.1836-0.5157-0.3907-0.6719-0.19922-0.16406-0.48438-0.25-0.85938-0.25-0.44922 0-0.76562 0.074219-0.95312 0.21875-0.1875 0.14844-0.28125 0.32031-0.28125 0.51562 0 0.125 0.035156 0.23438 0.10938 0.32812 0.082031 0.10547 0.20703 0.19531 0.375 0.26562 0.09375 0.03125 0.37891 0.11719 0.85938 0.25 0.67578 0.17969 1.1484 0.32422 1.4219 0.4375 0.2696 0.1172 0.4844 0.289 0.6407 0.5156 0.1562 0.2188 0.2343 0.4961 0.2343 0.8281 0 0.32422-0.09375 0.625-0.28125 0.90625s-0.46094 0.5-0.8125 0.65625c-0.3554 0.15628-0.7577 0.2344-1.2031 0.2344-0.74219 0-1.3086-0.14844-1.7031-0.45312-0.38672-0.3125-0.63281-0.76953-0.73438-1.375z"/>
   </symbol>
   <symbol id="y" overflow="visible">
    <path id="path66" d="m0.6875 2.2031-0.10938-0.9062c0.20704 0.0508 0.39063 0.0781 0.54688 0.0781 0.2188 0 0.3906-0.0391 0.5156-0.1094 0.1328-0.0742 0.2383-0.1718 0.3125-0.29685 0.0625-0.09375 0.1602-0.33594 0.2969-0.71875 0.0195-0.05469 0.0508-0.13281 0.0938-0.23438l-2.1719-5.7188h1.0469l1.1875 3.2969c0.15625 0.42969 0.28906 0.87109 0.40625 1.3281 0.11328-0.44531 0.25-0.87891 0.40625-1.2969l1.2188-3.3281h0.96875l-2.172 5.797c-0.2305 0.62495-0.4141 1.0546-0.5469 1.2968-0.168 0.3203-0.3672 0.5547-0.5937 0.7032-0.2188 0.1445-0.4805 0.2187-0.7813 0.2187-0.1875 0-0.39844-0.0391-0.625-0.1094z"/>
   </symbol>
   <symbol id="x" overflow="visible">
    <path id="path69" d="m0.85938 0v-7.875h3.5c0.69531 0 1.2266 0.074219 1.5938 0.21875 0.36328 0.13672 0.65625 0.38672 0.875 0.75 0.21875 0.35547 0.32812 0.75 0.32812 1.1875 0 0.55469-0.18359 1.0234-0.54688 1.4062-0.35547 0.38672-0.91406 0.63281-1.6719 0.73438 0.28125 0.125 0.48828 0.25781 0.625 0.39062 0.3125 0.28125 0.60156 0.63281 0.875 1.0469l1.3594 2.1407h-1.2969l-1.0469-1.6406c-0.3047-0.4688-0.5547-0.8282-0.75-1.0782-0.1992-0.25-0.375-0.4257-0.5312-0.5312-0.1563-0.1016-0.3125-0.1719-0.4688-0.2031-0.125-0.0313-0.3242-0.0469-0.5937-0.0469h-1.2031v3.5zm1.0469-4.4062h2.2344c0.47656 0 0.85156-0.046875 1.125-0.14062 0.26953-0.09375 0.47266-0.25 0.60938-0.46875 0.13281-0.21875 0.20312-0.45312 0.20312-0.70312 0-0.375-0.13672-0.67969-0.40625-0.92188-0.2617-0.2383-0.6836-0.3594-1.2657-0.3594h-2.5z"/>
   </symbol>
   <symbol id="aq" overflow="visible">
    <path id="path72" d="m4.4688 0v-0.84375c-0.4493 0.64844-1.0547 0.96875-1.8126 0.96875-0.3359 0-0.6523-0.0625-0.9531-0.1875-0.2929-0.13281-0.5117-0.29688-0.6562-0.48438-0.13672-0.19531-0.23047-0.4375-0.28125-0.71875-0.042969-0.1875-0.0625-0.48828-0.0625-0.90625v-3.5312h0.96875v3.1562c0 0.51172 0.019531 0.85547 0.0625 1.0312 0.0625 0.25 0.1875 0.44922 0.375 0.59375 0.19531 0.14844 0.44141 0.21875 0.73438 0.21875 0.28906 0 0.5625-0.070313 0.8125-0.21875 0.25781-0.15625 0.44141-0.35938 0.54688-0.60938 0.10156-0.25781 0.15625-0.62891 0.15625-1.1094v-3.0625h0.96875v5.7031z"/>
   </symbol>
   <symbol id="ap" overflow="visible">
    <path id="path78" d="m0.71875 2.1875v-7.8906h0.89062v0.73438c0.207-0.2813 0.4414-0.4922 0.7031-0.6407 0.25781-0.14453 0.57812-0.21875 0.95312-0.21875 0.47656 0 0.90625 0.125 1.2812 0.375 0.375 0.25 0.65625 0.60547 0.84375 1.0625 0.1875 0.44922 0.28125 0.94922 0.28125 1.5 0 0.58594-0.10547 1.1094-0.3125 1.5781-0.2108 0.46094-0.5154 0.8125-0.9217 1.0625-0.3984 0.25-0.8125 0.375-1.25 0.375-0.3242 0-0.6172-0.070312-0.875-0.20312-0.25-0.13282-0.4609-0.30469-0.625-0.51563v2.7812zm0.875-5c0 0.73047 0.14844 1.2734 0.45312 1.625 0.30078 0.34375 0.66016 0.51562 1.0781 0.51562 0.42578 0 0.78906-0.17578 1.0938-0.53125 0.3125-0.36328 0.46875-0.92969 0.46875-1.7031 0-0.71875-0.15234-1.2578-0.45312-1.625-0.2931-0.3633-0.6486-0.5469-1.0626-0.5469-0.418 0-0.7891 0.1953-1.1094 0.5781-0.3125 0.3867-0.4687 0.9492-0.4687 1.6875z"/>
   </symbol>
   <symbol id="w" overflow="visible">
    <path id="path81" d="m2.8594 0v-6.9375h-2.5938v-0.9375h6.2344v0.9375h-2.6094v6.9375z"/>
   </symbol>
   <symbol id="ao" overflow="visible">
    <path id="path84" d="m0.54688 0.46875 0.9375 0.14062c0.039 0.28907 0.1484 0.50393 0.3281 0.64063 0.23828 0.17578 0.56641 0.26562 0.98438 0.26562 0.44531 0 0.78906-0.089844 1.0312-0.26562 0.25-0.17969 0.41406-0.42969 0.5-0.75 0.0508-0.19922 0.0781-0.61328 0.0781-1.25-0.4296 0.5-0.9609 0.75-1.5937 0.75-0.7813 0-1.3867-0.28125-1.8125-0.84375-0.42969-0.57035-0.64062-1.254-0.64062-2.0468 0-0.53906 0.097656-1.0391 0.29688-1.5 0.19531-0.45703 0.47656-0.8125 0.84375-1.0625 0.375-0.25 0.81641-0.375 1.3281-0.375 0.66406 0 1.2188 0.27344 1.6562 0.8125v-0.6875h0.89062v4.9219c0.0001 0.89448-0.0897 1.5234-0.2655 1.8906-0.1797 0.375-0.4649 0.664-0.8594 0.875-0.3984 0.2187-0.8828 0.3281-1.4531 0.3281-0.6797 0-1.2266-0.1563-1.6407-0.4687-0.41792-0.3047-0.62104-0.7618-0.60932-1.375zm0.79692-3.4218c0 0.75 0.14453 1.2969 0.4375 1.6406 0.30078 0.34375 0.67578 0.51562 1.125 0.51562 0.44531 0 0.82031-0.17188 1.125-0.51562 0.30078-0.34375 0.45312-0.87891 0.45312-1.6094 0-0.69531-0.15625-1.2227-0.46875-1.5781-0.3125-0.35156-0.6875-0.53125-1.125-0.53125-0.42969 0-0.79297 0.17969-1.0938 0.53125-0.30469 0.34375-0.45312 0.85938-0.45312 1.5469z"/>
   </symbol>
   <symbol id="v" overflow="visible"></symbol>
   <symbol id="an" overflow="visible">
    <path id="path90" d="m4.5312-3.0938v-0.92188h3.3438v2.9219c-0.52344 0.40625-1.0547 0.71484-1.5938 0.92188-0.54297 0.20703-1.1016 0.3125-1.6719 0.3125-0.77344 0-1.4766-0.16406-2.1094-0.5-0.63672-0.33203-1.1172-0.8125-1.4375-1.4375-0.32422-0.625-0.48438-1.3281-0.48438-2.1094 0-0.75781 0.16016-1.4727 0.48438-2.1406 0.3204-0.664 0.7853-1.1601 1.3907-1.4843 0.6016-0.3204 1.2969-0.4844 2.0781-0.4844 0.5625 0 1.0703 0.09375 1.5312 0.28125 0.46875 0.1875 0.83203 0.44922 1.0938 0.78125 0.25781 0.32422 0.45703 0.75 0.59375 1.2812l-0.9375 0.25c-0.1172-0.3945-0.2617-0.707-0.4375-0.9375-0.1797-0.2265-0.4336-0.4101-0.7656-0.5468-0.3242-0.1329-0.6836-0.2032-1.0782-0.2032-0.48047 0-0.89062 0.074219-1.2344 0.21875-0.34375 0.13672-0.625 0.32422-0.84375 0.5625-0.21094 0.24219-0.375 0.5-0.5 0.78125-0.19922 0.49219-0.29688 1.0156-0.29688 1.5781 0 0.71094 0.11719 1.2969 0.35938 1.7656 0.25 0.46875 0.60156 0.82031 1.0625 1.0469 0.45703 0.23047 0.94531 0.34375 1.4688 0.34375 0.44531 0 0.88281-0.082031 1.3125-0.25 0.4376-0.1757 0.7657-0.3632 0.9845-0.5624v-1.4688z"/>
   </symbol>
   <symbol id="am" overflow="visible">
    <path id="path93" d="m0.71875 0v-7.875h0.96875v2.8281c0.45703-0.51953 1.0312-0.78125 1.7188-0.78125 0.41406 0 0.78125 0.085937 1.0938 0.25 0.3125 0.16797 0.53516 0.39844 0.67188 0.6875 0.13281 0.29297 0.20312 0.71875 0.20312 1.2812l-0.0001 3.6095h-0.9688v-3.6094c0-0.48828-0.10547-0.84375-0.3125-1.0625-0.2109-0.2187-0.5078-0.3281-0.8906-0.3281-0.29297 0-0.5625 0.074219-0.8125 0.21875-0.25 0.14844-0.43359 0.35156-0.54688 0.60938-0.10547 0.25-0.15625 0.60156-0.15625 1.0469v3.125z"/>
   </symbol>
   <symbol id="al" overflow="visible">
    <path id="path96" d="m0.5-2.5312 0.98438-0.078125c0.039063 0.38672 0.14453 0.71094 0.3125 0.96875 0.17578 0.25 0.44141 0.45312 0.79688 0.60938 0.35156 0.15625 0.75391 0.23438 1.2031 0.23438 0.40625 0 0.75781-0.054687 1.0625-0.17188 0.30078-0.125 0.52344-0.28516 0.67188-0.48438 0.15625-0.20703 0.23438-0.4375 0.23438-0.6875s-0.074219-0.46094-0.21875-0.64062c-0.1486-0.1876-0.3868-0.3438-0.7189-0.4688-0.2109-0.082-0.6797-0.207-1.4062-0.375-0.7188-0.1758-1.2266-0.3438-1.5157-0.5-0.375-0.1953-0.6562-0.4414-0.8437-0.7344-0.17969-0.289-0.26562-0.6172-0.26562-0.9844 0-0.39453 0.10938-0.76562 0.32812-1.1094 0.22656-0.34375 0.55469-0.60156 0.98438-0.78125 0.4375-0.1875 0.92188-0.28125 1.4531-0.28125 0.58203 0 1.0977 0.10156 1.5469 0.29688 0.44531 0.1875 0.78906 0.46484 1.0312 0.82812 0.23828 0.36719 0.36719 0.77734 0.39062 1.2344l-1 0.078125c-0.054688-0.5-0.23438-0.875-0.54688-1.125-0.3125-0.25781-0.77344-0.39062-1.375-0.39062-0.625 0-1.0859 0.12109-1.375 0.35938-0.29297 0.23047-0.4375 0.50781-0.4375 0.82812 0 0.28125 0.10156 0.51562 0.3125 0.70312 0.19531 0.17969 0.71875 0.36719 1.5625 0.5625 0.85156 0.1875 1.4375 0.35547 1.75 0.5 0.45703 0.21094 0.79688 0.47656 1.0156 0.79688 0.21875 0.32422 0.32812 0.69922 0.32812 1.125 0 0.41797-0.12109 0.8125-0.35938 1.1875-0.24219 0.36719-0.58984 0.65234-1.0469 0.85938-0.44922 0.20703-0.95312 0.3125-1.5156 0.3125-0.71094 0-1.3047-0.10547-1.7812-0.3125-0.4804-0.20711-0.8593-0.51961-1.1405-0.9376-0.27346-0.414-0.41409-0.8906-0.4219-1.4218z"/>
   </symbol>
   <symbol id="aj" overflow="visible">
    <path id="path102" d="m1.8281 0 8.25-5.0469-8.25-5.0312z"/>
   </symbol>
   <symbol id="ai" overflow="visible"></symbol>
   <symbol id="e" overflow="visible">
    <path id="path150" d="m4.0156-4.7656v-0.125c0-0.09375 0.015625-0.15625 0.046875-0.1875 0.039062-0.039063 0.085938-0.0625 0.14062-0.0625 0.0625 0 0.10938 0.023437 0.14062 0.0625 0.03125 0.03125 0.046875 0.09375 0.046875 0.1875v0.9375c0 0.085937-0.015625 0.14844-0.046875 0.1875-0.03125 0.042969-0.078125 0.0625-0.14062 0.0625-0.054687 0-0.09375-0.015625-0.125-0.046875-0.03125-0.039062-0.054687-0.10156-0.0625-0.1875-0.011719-0.23828-0.13672-0.45703-0.375-0.65625-0.24219-0.19531-0.55469-0.29688-0.9375-0.29688-0.40625 0-0.73047 0.10547-0.96875 0.3125-0.2422 0.2109-0.3594 0.4531-0.3594 0.7343 0 0.15625 0.03125 0.29688 0.09375 0.42188 0.070312 0.11719 0.16016 0.21094 0.26562 0.28125 0.11328 0.074219 0.23828 0.13672 0.375 0.1875 0.14453 0.042969 0.36719 0.085937 0.67188 0.125 0.5 0.085937 0.84375 0.16797 1.0312 0.25 0.25781 0.11719 0.45312 0.27734 0.57812 0.48438 0.13281 0.19922 0.20312 0.4375 0.20312 0.71875 0 0.41797-0.17188 0.77734-0.51562 1.0781-0.33594 0.29297-0.78906 0.4375-1.3594 0.4375-0.63672 0-1.1484-0.19531-1.5312-0.59375v0.20312c0 0.09375-0.023438 0.16406-0.0625 0.20312-0.0311 0.031335-0.0741 0.04696-0.1249 0.04696-0.05469 0-0.10156-0.015625-0.14062-0.046875-0.03126-0.039063-0.04688-0.10938-0.04688-0.20312v-1.0156c0-0.09375 0.015625-0.15625 0.046875-0.1875 0.039063-0.039063 0.085937-0.0625 0.14062-0.0625 0.050781 0 0.09375 0.023437 0.125 0.0625 0.03125 0.03125 0.050781 0.085937 0.0625 0.15625 0.00781 0.27344 0.14844 0.52344 0.42188 0.75 0.28125 0.21875 0.64844 0.32812 1.1094 0.32812 0.46875 0 0.83203-0.11328 1.0938-0.34375 0.26953-0.23828 0.40625-0.51562 0.40625-0.82812 0-0.19531-0.054688-0.36719-0.15625-0.51562-0.1057-0.1563-0.258-0.2735-0.4533-0.3594-0.1485-0.0625-0.4375-0.1289-0.875-0.2032-0.6172-0.1015-1.0586-0.2578-1.3282-0.4687-0.2734-0.2187-0.4062-0.5195-0.4062-0.9063 0-0.38281 0.14844-0.71875 0.45312-1 0.3125-0.28125 0.72266-0.42188 1.2344-0.42188 0.51953 0 0.96094 0.16797 1.3281 0.5z"/>
   </symbol>
   <symbol id="p" overflow="visible">
    <path id="path153" d="m1.4844-5.5156v2.2656c0.2383-0.25 0.4609-0.4258 0.6718-0.5312 0.2188-0.1016 0.461-0.1563 0.7344-0.1563 0.28125 0 0.51953 0.054688 0.71875 0.15625 0.20703 0.09375 0.375 0.25 0.5 0.46875 0.13281 0.21094 0.20312 0.42969 0.20312 0.65625v2.2812h0.42188c0.09375 0 0.15625 0.023438 0.1875 0.0625 0.039063 0.03125 0.0625 0.074219 0.0625 0.125 0 0.054688-0.023437 0.10156-0.0625 0.14062-0.0313 0.031355-0.0938 0.04698-0.1875 0.04698h-1.2032c-0.0937 0-0.164-0.015625-0.2031-0.046875-0.0312-0.039063-0.0469-0.085935-0.0469-0.14062 0-0.050781 0.015625-0.09375 0.046875-0.125 0.0391-0.03906 0.1094-0.0625 0.2031-0.0625h0.42188v-2.25c0-0.26953-0.10156-0.49219-0.29688-0.67188-0.1874-0.1758-0.4531-0.2656-0.7968-0.2656-0.27344 0-0.5 0.0625-0.6875 0.1875-0.14844 0.09375-0.375 0.32031-0.6875 0.67188v2.3281h0.42188c0.082031 0 0.14453 0.023438 0.1875 0.0625 0.039062 0.03125 0.0625 0.074219 0.0625 0.125 0 0.054688-0.023438 0.10156-0.0625 0.14062-0.043 0.031255-0.1055 0.04688-0.1876 0.04688h-1.2031c-0.09372 0-0.16404-0.015625-0.2031-0.046875-0.03125-0.039063-0.04688-0.085935-0.04688-0.14062 0-0.05078 0.01563-0.09375 0.04688-0.125 0.03906-0.03906 0.10938-0.0625 0.20312-0.0625h0.40625v-4.7656h-0.48438c-0.09374 0-0.16405-0.0156-0.20311-0.0469-0.03126-0.0391-0.04688-0.0859-0.04688-0.1406 0-0.050781 0.015625-0.09375 0.046875-0.125 0.039063-0.039063 0.10938-0.0625 0.20312-0.0625z"/>
   </symbol>
   <symbol id="o" overflow="visible">
    <path id="path156" d="m2.8906-5.7031v0.95312h-0.54688v-0.95312zm0 1.8906v3.4375h1.4531c0.09375 0 0.15625 0.023438 0.1875 0.0625 0.039062 0.03125 0.0625 0.074219 0.0625 0.125 0 0.054688-0.023438 0.10156-0.0625 0.14062-0.0312 0.031255-0.0937 0.04688-0.1874 0.04688h-3.2657c-0.09372 0-0.16404-0.015625-0.2031-0.046875-0.03125-0.039063-0.04688-0.085935-0.04688-0.14062 0-0.050781 0.015625-0.09375 0.046875-0.125 0.039062-0.039062 0.10938-0.0625 0.20312-0.0625h1.4531v-3.0625h-1.0781c-0.09375 0-0.16406-0.015625-0.20312-0.046875-0.03125-0.03125-0.046875-0.070313-0.046875-0.125 0-0.0625 0.015625-0.10938 0.046875-0.14062 0.039062-0.039062 0.10938-0.0625 0.20312-0.0625z"/>
   </symbol>
   <symbol id="n" overflow="visible">
    <path id="path159" d="m2.4531-3.4375v3.0625h1.625c0.082031 0 0.14453 0.023438 0.1875 0.0625 0.039063 0.03125 0.0625 0.074219 0.0625 0.125 0 0.054688-0.023437 0.10156-0.0625 0.14062-0.0429 0.031255-0.1054 0.04688-0.1875 0.04688h-2.8906c-0.0859 0-0.1484-0.015625-0.1875-0.046875-0.04297-0.039063-0.0625-0.085935-0.0625-0.14062 0-0.05078 0.01953-0.09375 0.0625-0.125 0.0391-0.03906 0.1016-0.0625 0.1875-0.0625h0.89062v-3.0625h-0.79688c-0.085938 0-0.14844-0.015625-0.1875-0.046875-0.0429-0.0312-0.0625-0.0781-0.0625-0.1406 0-0.050781 0.019531-0.09375 0.0625-0.125 0.039062-0.039062 0.10156-0.0625 0.1875-0.0625h0.79688v-0.54688c0-0.3125 0.125-0.58203 0.375-0.8125 0.25781-0.22656 0.59766-0.34375 1.0156-0.34375 0.34375 0 0.71094 0.03125 1.1094 0.09375 0.14453 0.023437 0.23438 0.054687 0.26562 0.09375 0.03125 0.03125 0.046875 0.074219 0.046875 0.125 0 0.054687-0.015625 0.09375-0.046875 0.125s-0.078125 0.046875-0.14062 0.046875c-0.023437 0-0.0625-0.00391-0.125-0.015625-0.4375-0.0625-0.80859-0.09375-1.1094-0.09375-0.32422 0-0.57422 0.078125-0.75 0.23438-0.1796 0.1562-0.2656 0.3398-0.2656 0.5468v0.54688h1.7344c0.082031 0 0.14453 0.023438 0.1875 0.0625 0.039062 0.03125 0.0625 0.078125 0.0625 0.14062 0 0.054687-0.023438 0.09375-0.0625 0.125-0.043 0.0313-0.1055 0.0469-0.1875 0.0469z"/>
   </symbol>
   <symbol id="m" overflow="visible">
    <path id="path162" d="m1.9375-3.8125h2.0156c0.082031 0 0.14062 0.023438 0.17188 0.0625 0.039062 0.03125 0.0625 0.078125 0.0625 0.14062 0 0.054687-0.023438 0.09375-0.0625 0.125-0.0312 0.0313-0.0898 0.0469-0.1719 0.0469h-2.0156v2.4688c0 0.21094 0.082031 0.38672 0.25 0.53125 0.17578 0.14844 0.42969 0.21875 0.76562 0.21875 0.25 0 0.51953-0.035156 0.8125-0.10938 0.2891-0.08208 0.5156-0.17192 0.6719-0.26567 0.0625-0.03125 0.1094-0.04687 0.1406-0.04687 0.050781 0 0.09375 0.023437 0.125 0.0625 0.039063 0.03125 0.0625 0.070313 0.0625 0.10938 0 0.054688-0.023437 0.09375-0.0625 0.125-0.09375 0.10547-0.32422 0.21484-0.6875 0.32812-0.36719 0.10156-0.71094 0.15625-1.0312 0.15625-0.4375 0-0.78906-0.10156-1.0469-0.29688-0.25-0.20703-0.375-0.47656-0.375-0.8125v-2.4688h-0.67188c-0.09374 0.0001-0.16406-0.0155-0.20312-0.0468-0.03125-0.0312-0.04688-0.0781-0.04688-0.1406 0-0.050781 0.015625-0.09375 0.046875-0.125 0.039062-0.039062 0.10938-0.0625 0.20312-0.0625h0.67188v-1.0781c0-0.09375 0.015625-0.15625 0.046875-0.1875 0.039063-0.039063 0.085937-0.0625 0.14062-0.0625 0.0625 0 0.10938 0.023437 0.14062 0.0625 0.03125 0.03125 0.046875 0.09375 0.046875 0.1875z"/>
   </symbol>
   <symbol id="ah" overflow="visible">
    <path id="path165" d="m1.5-2.2969v1.9219h0.6875c0.082031 0 0.14453 0.023438 0.1875 0.0625 0.039062 0.03125 0.0625 0.074219 0.0625 0.125 0 0.054688-0.023438 0.10156-0.0625 0.14062-0.043 0.031255-0.1055 0.04688-0.1875 0.04688h-1.5469c-0.09372 0-0.16404-0.015625-0.2031-0.046875-0.03125-0.039063-0.04688-0.085935-0.04688-0.14062 0-0.050781 0.015625-0.09375 0.046875-0.125 0.039062-0.039062 0.10938-0.0625 0.20312-0.0625h0.48438v-4.3906h-0.48438c-0.09374 0-0.16406-0.0156-0.20312-0.0469-0.03125-0.0391-0.04688-0.0859-0.04688-0.1406 0-0.0625 0.01563-0.1094 0.04688-0.1407 0.03906-0.0312 0.10938-0.0468 0.20312-0.0468h2.2188c0.46875 0 0.85938 0.14844 1.1719 0.4375 0.3125 0.2929 0.4687 0.6211 0.4687 0.9843 0 0.26172-0.10156 0.51172-0.29688 0.75-0.1875 0.23047-0.51172 0.42188-0.96875 0.57812 0.25781 0.17969 0.48438 0.38281 0.67188 0.60938 0.1875 0.23047 0.48828 0.69922 0.90625 1.4062h0.28125c0.082031 0 0.14062 0.023438 0.17188 0.0625 0.039063 0.03125 0.0625 0.074219 0.0625 0.125 0 0.054688-0.023437 0.10156-0.0625 0.14062-0.0313 0.031355-0.0899 0.04698-0.1719 0.04698h-0.5c-0.46094-0.8125-0.8125-1.3594-1.0625-1.6406-0.25-0.28125-0.53906-0.5-0.85938-0.65625zm0-0.35938h1c0.32031 0 0.61328-0.054688 0.875-0.17188 0.2695-0.1249 0.4609-0.2656 0.5781-0.4218 0.1133-0.1562 0.1719-0.3164 0.1719-0.4844 0-0.25-0.125-0.4844-0.375-0.7031-0.2422-0.2187-0.5391-0.3281-0.8906-0.3281h-1.3594z"/>
   </symbol>
   <symbol id="ag" overflow="visible">
    <path id="path168" d="m1.8125-2.4844v2.1094h1.2656c0.082031 0 0.14453 0.023438 0.1875 0.0625 0.039063 0.03125 0.0625 0.074219 0.0625 0.125 0 0.054688-0.023437 0.10156-0.0625 0.14062-0.0429 0.031255-0.1054 0.04688-0.1875 0.04688h-2.1406c-0.08594 0-0.14844-0.015625-0.1875-0.046875-0.03125-0.039063-0.04688-0.085935-0.04688-0.14062 0-0.05078 0.01563-0.09375 0.04688-0.125 0.03906-0.03906 0.10156-0.0625 0.1875-0.0625h0.5v-4.3906h-0.5c-0.08594 0-0.14844-0.0156-0.1875-0.0469-0.03125-0.0391-0.04688-0.0859-0.04688-0.1406 0-0.0625 0.019531-0.10938 0.0625-0.14062 0.03126-0.0313 0.08594-0.0469 0.17188-0.0469h4.0781v1.2656c0 0.09375-0.023437 0.16406-0.0625 0.20312-0.0312 0.0313-0.0742 0.0469-0.125 0.0469-0.0625 0-0.1093-0.0156-0.1406-0.0469-0.0313-0.039-0.0469-0.1093-0.0469-0.2031v-0.89062h-2.8281v1.9062h1.3281v-0.40625c0-0.09375 0.015625-0.15625 0.046875-0.1875 0.03125-0.039063 0.078125-0.0625 0.14062-0.0625 0.050781 0 0.09375 0.023437 0.125 0.0625 0.03125 0.03125 0.046875 0.09375 0.046875 0.1875v1.2031c0 0.085938-0.015625 0.14844-0.046875 0.1875-0.03125 0.042969-0.074219 0.0625-0.125 0.0625-0.0625 0-0.10938-0.019531-0.14062-0.0625-0.0313-0.0391-0.0469-0.1016-0.0469-0.1875v-0.42188z"/>
   </symbol>
   <symbol id="l" overflow="visible">
    <path id="path174" d="m2.5-1.1562v-1.9688h-1.9375v-0.8125h1.9375v-1.9531h0.82812v1.9531h1.9531v0.8125h-1.9531v1.9688z"/>
   </symbol>
   <symbol id="af" overflow="visible">
    <path id="path177" d="m0.75 0v-7.1562h1.4219l1.6875 5.0625c0.15625 0.48047 0.26953 0.83594 0.34375 1.0625 0.082031-0.25781 0.20703-0.64062 0.375-1.1406l1.7188-4.9844h1.2812v7.1562h-0.92188v-5.9844l-2.0782 5.9844h-0.8593l-2.0626-6.0938v6.0938z"/>
   </symbol>
   <symbol id="ae" overflow="visible">
    <path id="path180" d="m4.0469-0.64062c-0.32422 0.28125-0.63672 0.48047-0.9375 0.59375-0.3047 0.11328-0.625 0.17187-0.9688 0.17187-0.5742 0-1.0156-0.14062-1.3281-0.42188-0.30469-0.28124-0.45312-0.64062-0.45312-1.0781 0-0.25 0.054687-0.47656 0.17188-0.6875 0.11328-0.20703 0.26562-0.375 0.45312-0.5 0.1875-0.13281 0.39844-0.23438 0.64062-0.29688 0.16406-0.039063 0.42578-0.082031 0.78125-0.125 0.70703-0.082031 1.2266-0.1875 1.5625-0.3125v-0.21875c0-0.36328-0.085938-0.61719-0.25-0.76562-0.21875-0.19531-0.55469-0.29688-1-0.29688-0.40625 0-0.71094 0.074219-0.90625 0.21875-0.1991 0.1485-0.3436 0.4024-0.4374 0.7656l-0.85938-0.1093c0.070313-0.375 0.19531-0.67188 0.375-0.89062 0.1875-0.22656 0.44531-0.39844 0.78125-0.51562 0.34375-0.125 0.73828-0.1875 1.1875-0.1875 0.4375 0 0.78906 0.054687 1.0625 0.15625 0.28125 0.10547 0.48438 0.23438 0.60938 0.39062 0.13281 0.15625 0.22656 0.35547 0.28125 0.59375 0.03125 0.14844 0.046875 0.41797 0.046875 0.8125v1.1719c0 0.8125 0.015625 1.3281 0.046875 1.5469 0.0391 0.21855 0.1172 0.42949 0.2344 0.6248h-0.9218c-0.0938-0.1875-0.1524-0.39844-0.1719-0.64062zm-0.0781-1.9688c-0.32422 0.13672-0.80469 0.25-1.4375 0.34375-0.35547 0.054687-0.60938 0.10938-0.76562 0.17188-0.14844 0.0625-0.26172 0.15625-0.34375 0.28125-0.085937 0.125-0.125 0.26562-0.125 0.42188 0 0.23047 0.085937 0.42188 0.26562 0.57812 0.17578 0.15625 0.4375 0.23438 0.78125 0.23438s0.64453-0.070313 0.90625-0.21875c0.25781-0.14453 0.45312-0.34766 0.57812-0.60938 0.09375-0.19531 0.14062-0.48828 0.14062-0.875z"/>
   </symbol>
   <symbol id="ad" overflow="visible">
    <path id="path183" d="m4.0469-1.9062 0.85938 0.125c-0.0938 0.5937-0.3399 1.0624-0.7344 1.4062-0.3867 0.33594-0.8594 0.5-1.4219 0.5-0.71094 0-1.2812-0.23438-1.7188-0.70312-0.42969-0.46875-0.64062-1.1328-0.64062-2 0-0.55078 0.09375-1.0352 0.28125-1.4531 0.1875-0.42578 0.46875-0.74219 0.84375-0.95312 0.375-0.20703 0.78516-0.3125 1.2344-0.3125 0.5625 0 1.0195 0.14062 1.375 0.42188 0.36328 0.28125 0.59766 0.6875 0.70312 1.2188l-0.85938 0.125c-0.0859-0.3439-0.2304-0.6017-0.4375-0.7814-0.19922-0.17578-0.44922-0.26562-0.75-0.26562-0.4375 0-0.79688 0.16406-1.0781 0.48438-0.27344 0.3125-0.40625 0.8125-0.40625 1.5 0 0.69922 0.12891 1.2031 0.39062 1.5156 0.26953 0.3125 0.61719 0.46875 1.0469 0.46875 0.34375 0 0.62891-0.10156 0.85938-0.3125 0.23828-0.20703 0.39062-0.53516 0.45312-0.98438z"/>
   </symbol>
   <symbol id="ac" overflow="visible">
    <path id="path186" d="m0.65625 0v-5.1875h0.78125v0.78125c0.207-0.3633 0.3945-0.6016 0.5625-0.7188 0.16406-0.11328 0.35156-0.17188 0.5625-0.17188 0.30078 0 0.60156 0.09375 0.90625 0.28125l-0.29688 0.8125c-0.21875-0.125-0.4375-0.1875-0.65625-0.1875-0.1875 0-0.35938 0.058594-0.51562 0.17188-0.15625 0.11719-0.26562 0.27734-0.32812 0.48438-0.09375 0.3125-0.14062 0.65234-0.14062 1.0156v2.7188z"/>
   </symbol>
   <symbol id="ab" overflow="visible">
    <path id="path189" d="m0.32812-2.5938c0-0.95703 0.26953-1.6719 0.8125-2.1406 0.4375-0.375 0.97656-0.5625 1.625-0.5625 0.70703 0 1.2852 0.23438 1.7344 0.70312 0.45703 0.46094 0.6875 1.1016 0.6875 1.9219 0 0.66797-0.10156 1.1953-0.29688 1.5781-0.19922 0.38672-0.49219 0.6875-0.875 0.90625-0.3867 0.20713-0.8047 0.3126-1.25 0.3126-0.7304 0-1.3203-0.23438-1.7656-0.70312-0.44922-0.46878-0.67188-1.1407-0.67188-2.0157zm0.90625 0c0 0.66797 0.14453 1.168 0.4375 1.5 0.28906 0.32422 0.65625 0.48438 1.0938 0.48438 0.4375 0 0.79688-0.16406 1.0781-0.5 0.28906-0.33203 0.4375-0.83594 0.4375-1.5156 0-0.63281-0.14844-1.1172-0.4375-1.4531-0.29297-0.33203-0.65234-0.5-1.0781-0.5-0.4375 0-0.80469 0.16797-1.0938 0.5-0.29297 0.32422-0.4375 0.82031-0.4375 1.4844z"/>
   </symbol>
   <symbol id="aa" overflow="visible">
    <path id="path192" d="m0.3125-1.5469 0.8594-0.1406c0.050781 0.35547 0.1875 0.625 0.40625 0.8125 0.22656 0.17969 0.53906 0.26562 0.9375 0.26562 0.40625 0 0.70703-0.078125 0.90625-0.23438 0.19531-0.16406 0.29688-0.36328 0.29688-0.59375 0-0.19531-0.089844-0.35156-0.26562-0.46875-0.125-0.070312-0.42969-0.17188-0.90625-0.29688-0.63672-0.15625-1.0781-0.28906-1.3281-0.40625-0.25-0.125-0.44531-0.28906-0.57812-0.5-0.125-0.20703-0.1875-0.44141-0.1875-0.70312 0-0.22656 0.050781-0.44141 0.15625-0.64062 0.10156-0.19531 0.25-0.35938 0.4375-0.48438 0.13281-0.10156 0.31641-0.1875 0.54688-0.25 0.23828-0.070312 0.49219-0.10938 0.76562-0.10938 0.40625 0 0.75781 0.058594 1.0625 0.17188 0.3125 0.11719 0.53906 0.27734 0.6875 0.48438 0.15625 0.19922 0.25781 0.46484 0.3125 0.79688l-0.8594 0.1093c-0.043-0.2578-0.1563-0.4609-0.3437-0.6094-0.1876-0.1562-0.4532-0.2343-0.7969-0.2343-0.39844 0-0.68359 0.070313-0.85938 0.20312-0.17969 0.125-0.26562 0.28125-0.26562 0.46875 0 0.11719 0.035156 0.21484 0.10938 0.29688 0.070312 0.09375 0.1875 0.17188 0.34375 0.23438 0.082031 0.03125 0.34375 0.10938 0.78125 0.23438 0.61328 0.16797 1.0391 0.30469 1.2812 0.40625 0.25 0.10547 0.44141 0.26172 0.57812 0.46875 0.14453 0.19922 0.21875 0.44531 0.21875 0.73438 0 0.30469-0.085937 0.58594-0.25 0.84375-0.1679 0.2498-0.414 0.44902-0.7343 0.59355-0.3242 0.14453-0.6875 0.21875-1.0938 0.21875-0.6796 0-1.1953-0.14062-1.5468-0.42188-0.35549-0.28124-0.57815-0.69531-0.6719-1.25z"/>
   </symbol>
  </g>
  <clipPath id="aw">
   <path id="path195" d="m188 40h142v146h-142z"/>
  </clipPath>
  <clipPath id="av">
   <path id="path198" d="m188 184.8v-144.8h142.4v144.8c0 0.44141-0.15625 0.81641-0.46875 1.1289-0.3125 0.3125-0.6875 0.46875-1.1289 0.46875h-139.2c-0.44531 0-0.82031-0.15625-1.1328-0.46875-0.31-0.31-0.47-0.69-0.47-1.13z"/>
  </clipPath>
  <clipPath id="au">
   <path id="path201" d="m188.8 184.8v-144h140.8v144c0 0.21875-0.0781 0.41016-0.23437 0.56641-0.15625 0.15625-0.34766 0.23437-0.56641 0.23437h-139.2c-0.22265 0-0.41015-0.0781-0.5664-0.23437-0.15625-0.15625-0.23438-0.34766-0.23438-0.56641z"/>
  </clipPath>
  <clipPath id="at">
   <path id="path204" d="m188 40h143v147h-143z"/>
  </clipPath>
  <clipPath id="as">
   <path id="path207" d="m188 184.8v-144.8h142.4v144.8c0 0.44141-0.15625 0.81641-0.46875 1.1289-0.3125 0.3125-0.6875 0.46875-1.1289 0.46875h-139.2c-0.44531 0-0.82031-0.15625-1.1328-0.46875-0.31-0.31-0.47-0.69-0.47-1.13z"/>
  </clipPath>
 </defs>
 <path id="path212" d="m0 40h462.1v155.62h-462.1z" fill="#cacaca"/>
 <path id="path214" d="m0 0h462.1v40.801h-462.1z" fill="#212121"/>
 <g fill="#979797">
  <g id="g218">
   <use id="use220" xlink:href="#ar" height="648" width="864" y="24" x="24"/>
  </g>
  <g id="g222">
   <use id="use224" xlink:href="#f" height="648" width="864" y="24" x="32.799999"/>
  </g>
  <g id="g226">
   <use id="use228" xlink:href="#u" height="648" width="864" y="24" x="39.200001"/>
  </g>
  <g id="g230">
   <use id="use232" xlink:href="#r" height="648" width="864" y="24" x="44.799999"/>
  </g>
  <g id="g234">
   <use id="use236" xlink:href="#c" height="648" width="864" y="24" x="48.799999"/>
  </g>
  <path id="path238" d="m60 19.199 3.1992 3.1992 3.1992-3.1992"/>
  <g id="g240">
   <use id="use242" xlink:href="#t" height="648" width="864" y="24" x="90.400002"/>
  </g>
  <g id="g244">
   <use id="use246" xlink:href="#q" height="648" width="864" y="24" x="97.599998"/>
  </g>
  <g id="g248">
   <use id="use250" xlink:href="#q" height="648" width="864" y="24" x="104"/>
  </g>
  <g id="g252">
   <use id="use254" xlink:href="#ak" height="648" width="864" y="24" x="113.6"/>
  </g>
  <g id="g256">
   <use id="use258" xlink:href="#c" height="648" width="864" y="24" x="121.6"/>
  </g>
  <g id="g260">
   <use id="use262" xlink:href="#d" height="648" width="864" y="24" x="128"/>
  </g>
  <g id="g264">
   <use id="use266" xlink:href="#d" height="648" width="864" y="24" x="136.8"/>
  </g>
  <g id="g268">
   <use id="use270" xlink:href="#f" height="648" width="864" y="24" x="145.60001"/>
  </g>
  <g id="g272">
   <use id="use274" xlink:href="#k" height="648" width="864" y="24" x="152"/>
  </g>
  <g id="g276">
   <use id="use278" xlink:href="#q" height="648" width="864" y="24" x="158.39999"/>
  </g>
  <path id="path280" d="m169.6 19.199 3.1992 3.1992l3.2-3.199"/>
 </g>
 <path id="path282" d="m188 0h55.199v40h-55.2z" fill="#070707"/>
 <g fill="#fff">
  <g id="g284">
   <use id="use286" xlink:href="#j" height="648" width="864" y="24" x="200"/>
  </g>
  <g id="g288">
   <use id="use290" xlink:href="#b" height="648" width="864" y="24" x="207.2"/>
  </g>
  <g id="g292">
   <use id="use294" xlink:href="#a" height="648" width="864" y="24" x="209.60001"/>
  </g>
  <g id="g296">
   <use id="use298" xlink:href="#i" height="648" width="864" y="24" x="216"/>
  </g>
  <path id="path300" d="m224.8 19.199 3.2 3.199l3.1992-3.1992"/>
 </g>
 <g fill="#979797">
  <g id="g302">
   <use id="use304" xlink:href="#t" height="648" width="864" y="24" x="255.2"/>
  </g>
  <g id="g306">
   <use id="use308" xlink:href="#u" height="648" width="864" y="24" x="262.39999"/>
  </g>
  <g id="g310">
   <use id="use312" xlink:href="#h" height="648" width="864" y="24" x="268"/>
  </g>
  <g id="g314">
   <use id="use316" xlink:href="#b" height="648" width="864" y="24" x="271.20001"/>
  </g>
  <g id="g318">
   <use id="use320" xlink:href="#c" height="648" width="864" y="24" x="273.60001"/>
  </g>
  <g id="g322">
   <use id="use324" xlink:href="#k" height="648" width="864" y="24" x="280"/>
  </g>
  <path id="path326" d="m288 19.199 3.1992 3.1992 3.1992-3.1992"/>
  <g id="g328">
   <use id="use330" xlink:href="#z" height="648" width="864" y="24" x="318.39999"/>
  </g>
  <g id="g332">
   <use id="use334" xlink:href="#b" height="648" width="864" y="24" x="325.60001"/>
  </g>
  <g id="g336">
   <use id="use338" xlink:href="#g" height="648" width="864" y="24" x="328"/>
  </g>
  <g id="g340">
   <use id="use342" xlink:href="#a" height="648" width="864" y="24" x="330.39999"/>
  </g>
  <g id="g344">
   <use id="use346" xlink:href="#s" height="648" width="864" y="24" x="336.79999"/>
  </g>
  <g id="g348">
   <use id="use350" xlink:href="#y" height="648" width="864" y="24" x="342.39999"/>
  </g>
  <g id="g352">
   <use id="use354" xlink:href="#s" height="648" width="864" y="24" x="348"/>
  </g>
  <g id="g356">
   <use id="use358" xlink:href="#h" height="648" width="864" y="24" x="353.60001"/>
  </g>
  <g id="g360">
   <use id="use362" xlink:href="#a" height="648" width="864" y="24" x="356.79999"/>
  </g>
  <g id="g364">
   <use id="use366" xlink:href="#d" height="648" width="864" y="24" x="363.20001"/>
  </g>
  <g id="g368">
   <use id="use370" xlink:href="#x" height="648" width="864" y="24" x="418.39999"/>
  </g>
  <g id="g372">
   <use id="use374" xlink:href="#aq" height="648" width="864" y="24" x="426.39999"/>
  </g>
  <g id="g376">
   <use id="use378" xlink:href="#k" height="648" width="864" y="24" x="432.79999"/>
  </g>
  <g id="g380">
   <use id="use382" xlink:href="#aj" height="648" width="864" y="24.799999" x="396"/>
  </g>
  <g id="g384">
   <use id="use386" xlink:href="#ai" height="648" width="864" y="24.799999" x="407.20001"/>
  </g>
 </g>
 <g id="g498" clip-path="url(#aw)">
  <g id="g500" clip-path="url(#av)">
   <g id="g502" clip-path="url(#au)">
    <path id="path504" d="m188 40h142.4v146.4h-142.4z" fill="#fff"/>
   </g>
  </g>
 </g>
 <g id="g506" clip-path="url(#at)">
  <g id="g508" clip-path="url(#as)">
   <path id="path510" d="m188 184.8v-144.8h142.4v144.8c0 0.44141-0.15625 0.81641-0.46875 1.1289-0.3125 0.3125-0.6875 0.46875-1.1289 0.46875h-139.2c-0.44531 0-0.82031-0.15625-1.1328-0.46875-0.31-0.31-0.47-0.69-0.47-1.13zm0.80078 0v-144h140.8v144c0 0.21875-0.0781 0.41016-0.23437 0.56641-0.15625 0.15625-0.34766 0.23437-0.56641 0.23437h-139.2c-0.22265 0-0.41015-0.0781-0.5664-0.23437-0.15625-0.15625-0.23438-0.34766-0.23438-0.56641z" fill-opacity="0.149" fill-rule="evenodd"/>
  </g>
 </g>
 <path id="path512" d="m188.8 155.2h140.8v0.80078h-140.8z" fill="#e3e3e3"/>
 <g fill="#303030">
  <g id="g514">
   <use id="use516" xlink:href="#w" height="648" width="864" y="59.200001" x="204.8"/>
  </g>
  <g id="g518">
   <use id="use520" xlink:href="#c" height="648" width="864" y="59.200001" x="212"/>
  </g>
  <g id="g522">
   <use id="use524" xlink:href="#c" height="648" width="864" y="59.200001" x="218.39999"/>
  </g>
  <g id="g526">
   <use id="use528" xlink:href="#ao" height="648" width="864" y="59.200001" x="224.8"/>
  </g>
  <g id="g530">
   <use id="use532" xlink:href="#g" height="648" width="864" y="59.200001" x="231.2"/>
  </g>
  <g id="g534">
   <use id="use536" xlink:href="#a" height="648" width="864" y="59.200001" x="233.60001"/>
  </g>
  <g id="g538">
   <use id="use540" xlink:href="#w" height="648" width="864" y="59.200001" x="243.2"/>
  </g>
  <g id="g542">
   <use id="use544" xlink:href="#a" height="648" width="864" y="59.200001" x="250.39999"/>
  </g>
  <g id="g546">
   <use id="use548" xlink:href="#r" height="648" width="864" y="59.200001" x="256.79999"/>
  </g>
  <g id="g550">
   <use id="use552" xlink:href="#d" height="648" width="864" y="59.200001" x="260.79999"/>
  </g>
  <g id="g554">
   <use id="use556" xlink:href="#b" height="648" width="864" y="59.200001" x="269.60001"/>
  </g>
  <g id="g558">
   <use id="use560" xlink:href="#k" height="648" width="864" y="59.200001" x="272"/>
  </g>
  <g id="g562">
   <use id="use564" xlink:href="#f" height="648" width="864" y="59.200001" x="278.39999"/>
  </g>
  <g id="g566">
   <use id="use568" xlink:href="#g" height="648" width="864" y="59.200001" x="284.79999"/>
  </g>
  <g id="g570">
   <use id="use572" xlink:href="#v" height="648" width="864" y="59.200001" x="287.20001"/>
  </g>
  <g id="g574">
   <use id="use576" xlink:href="#j" height="648" width="864" y="59.200001" x="290.39999"/>
  </g>
  <g id="g578">
   <use id="use580" xlink:href="#b" height="648" width="864" y="59.200001" x="297.60001"/>
  </g>
  <g id="g582">
   <use id="use584" xlink:href="#a" height="648" width="864" y="59.200001" x="300"/>
  </g>
  <g id="g586">
   <use id="use588" xlink:href="#i" height="648" width="864" y="59.200001" x="306.39999"/>
  </g>
 </g>
 <path id="path590" d="m292 62.398c1.3242 0 2.3984 1.0742 2.3984 2.4023v11.199c0 1.3242-1.0742 2.3984-2.3984 2.3984h-31.199c-1.3281 0-2.4023-1.0742-2.4023-2.3984v-11.199c0-1.3281 1.0742-2.4023 2.4023-2.4023z" fill="#fff"/>
 <path id="path592" d="m292 62.398c1.3242 0 2.3984 1.0742 2.3984 2.4023v11.199c0 1.3242-1.0742 2.3984-2.3984 2.3984h-31.199c-1.3281 0-2.4023-1.0742-2.4023-2.3984v-11.199c0-1.3281 1.0742-2.4023 2.4023-2.4023zm0 0.80078c0.88281 0 1.6016 0.71875 1.6016 1.6016v11.199c0 0.88281-0.71875 1.6016-1.6016 1.6016h-31.199c-0.88281 0-1.6016-0.71875-1.6016-1.6016v-11.199c0-0.88281 0.71875-1.6016 1.6016-1.6016z" fill-rule="evenodd" fill="#dcdcdc"/>
 <g fill="#303030">
  <g id="g594">
   <use id="use596" xlink:href="#e" height="648" width="864" y="73.599998" x="262.39999"/>
  </g>
  <g id="g598">
   <use id="use600" xlink:href="#p" height="648" width="864" y="73.599998" x="268"/>
  </g>
  <g id="g602">
   <use id="use604" xlink:href="#o" height="648" width="864" y="73.599998" x="273.60001"/>
  </g>
  <g id="g606">
   <use id="use608" xlink:href="#n" height="648" width="864" y="73.599998" x="279.20001"/>
  </g>
  <g id="g610">
   <use id="use612" xlink:href="#m" height="648" width="864" y="73.599998" x="284.79999"/>
  </g>
  <g id="g614">
   <use id="use616" xlink:href="#l" height="648" width="864" y="73.599998" x="294.39999"/>
  </g>
 </g>
 <path id="path618" d="m311.2 62.398c1.3281 0 2.4023 1.0742 2.4023 2.4023v11.199c0 1.3242-1.0742 2.3984-2.4023 2.3984h-8.8008c-1.33 0.001-2.4-1.073-2.4-2.397v-11.199c0-1.3281 1.0742-2.4023 2.3984-2.4023z" fill="#fff"/>
 <path id="path620" d="m311.2 62.398c1.3281 0 2.4023 1.0742 2.4023 2.4023v11.199c0 1.3242-1.0742 2.3984-2.4023 2.3984h-8.8008c-1.33 0.001-2.4-1.073-2.4-2.397v-11.199c0-1.3281 1.0742-2.4023 2.3984-2.4023zm0 0.80078c0.88281 0 1.6016 0.71875 1.6016 1.6016v11.199c0 0.88281-0.71875 1.6016-1.6016 1.6016h-8.8008c-0.88282 0-1.5977-0.71875-1.5977-1.6016v-11.199c0-0.88281 0.71484-1.6016 1.5977-1.6016z" fill-rule="evenodd" fill="#dcdcdc"/>
 <g fill="#303030">
  <g id="g622">
   <use id="use624" xlink:href="#e" height="648" width="864" y="73.599998" x="304"/>
  </g>
  <g id="g626">
   <use id="use628" xlink:href="#j" height="648" width="864" y="93.599998" x="204.8"/>
  </g>
  <g id="g630">
   <use id="use632" xlink:href="#b" height="648" width="864" y="93.599998" x="212"/>
  </g>
  <g id="g634">
   <use id="use636" xlink:href="#a" height="648" width="864" y="93.599998" x="214.39999"/>
  </g>
  <g id="g638">
   <use id="use640" xlink:href="#i" height="648" width="864" y="93.599998" x="220.8"/>
  </g>
  <g id="g642">
   <use id="use644" xlink:href="#x" height="648" width="864" y="93.599998" x="231.2"/>
  </g>
  <g id="g646">
   <use id="use648" xlink:href="#c" height="648" width="864" y="93.599998" x="239.2"/>
  </g>
  <g id="g650">
   <use id="use652" xlink:href="#c" height="648" width="864" y="93.599998" x="245.60001"/>
  </g>
  <g id="g654">
   <use id="use656" xlink:href="#h" height="648" width="864" y="93.599998" x="252"/>
  </g>
  <g id="g658">
   <use id="use660" xlink:href="#v" height="648" width="864" y="93.599998" x="255.2"/>
  </g>
  <g id="g662">
   <use id="use664" xlink:href="#an" height="648" width="864" y="93.599998" x="258.39999"/>
  </g>
  <g id="g666">
   <use id="use668" xlink:href="#r" height="648" width="864" y="93.599998" x="267.20001"/>
  </g>
  <g id="g670">
   <use id="use672" xlink:href="#f" height="648" width="864" y="93.599998" x="271.20001"/>
  </g>
  <g id="g674">
   <use id="use676" xlink:href="#ap" height="648" width="864" y="93.599998" x="277.60001"/>
  </g>
  <g id="g678">
   <use id="use680" xlink:href="#am" height="648" width="864" y="93.599998" x="284"/>
  </g>
 </g>
 <path id="path682" d="m292 96.801c1.3242 0 2.3984 1.0742 2.3984 2.3984v11.199c0 1.3281-1.0742 2.4023-2.3984 2.4023h-31.199c-1.3281 0-2.4023-1.0742-2.4023-2.4023v-11.199c0-1.3242 1.0742-2.3984 2.4023-2.3984z" fill="#fff"/>
 <path id="path684" d="m292 96.801c1.3242 0 2.3984 1.0742 2.3984 2.3984v11.199c0 1.3281-1.0742 2.4023-2.3984 2.4023h-31.199c-1.3281 0-2.4023-1.0742-2.4023-2.4023v-11.199c0-1.3242 1.0742-2.3984 2.4023-2.3984zm0 0.80078c0.88281 0 1.6016 0.71484 1.6016 1.5977v11.199c0 0.89-0.72 1.6-1.6 1.6h-31.199c-0.88281 0-1.6016-0.71484-1.6016-1.6016v-11.199c0-0.88281 0.71875-1.5977 1.6016-1.5977z" fill-rule="evenodd" fill="#dcdcdc"/>
 <g fill="#303030">
  <g id="g686">
   <use id="use688" xlink:href="#e" height="648" width="864" y="108" x="262.39999"/>
  </g>
  <g id="g690">
   <use id="use692" xlink:href="#p" height="648" width="864" y="108" x="268"/>
  </g>
  <g id="g694">
   <use id="use696" xlink:href="#o" height="648" width="864" y="108" x="273.60001"/>
  </g>
  <g id="g698">
   <use id="use700" xlink:href="#n" height="648" width="864" y="108" x="279.20001"/>
  </g>
  <g id="g702">
   <use id="use704" xlink:href="#m" height="648" width="864" y="108" x="284.79999"/>
  </g>
  <g id="g706">
   <use id="use708" xlink:href="#l" height="648" width="864" y="108" x="294.39999"/>
  </g>
 </g>
 <path id="path710" d="m311.2 96.801c1.3281 0 2.4023 1.0742 2.4023 2.3984v11.199c0 1.3281-1.0742 2.4023-2.4023 2.4023h-8.8008c-1.3242 0-2.3984-1.0742-2.3984-2.4023v-11.199c0-1.3242 1.0742-2.3984 2.3984-2.3984z" fill="#fff"/>
 <path id="path712" d="m311.2 96.801c1.3281 0 2.4023 1.0742 2.4023 2.3984v11.199c0 1.3281-1.0742 2.4023-2.4023 2.4023h-8.8008c-1.3242 0-2.3984-1.0742-2.3984-2.4023v-11.199c0-1.3242 1.0742-2.3984 2.3984-2.3984zm0 0.80078c0.88281 0 1.6016 0.71484 1.6016 1.5977v11.199c0 0.88672-0.71875 1.6016-1.6016 1.6016h-8.8008c-0.88282 0-1.5977-0.71484-1.5977-1.6016v-11.199c0-0.88281 0.71484-1.5977 1.5977-1.5977z" fill-rule="evenodd" fill="#dcdcdc"/>
 <g fill="#303030">
  <g id="g714">
   <use id="use716" xlink:href="#ah" height="648" width="864" y="108" x="304"/>
  </g>
  <g id="g718">
   <use id="use720" xlink:href="#j" height="648" width="864" y="128" x="204.8"/>
  </g>
  <g id="g722">
   <use id="use724" xlink:href="#b" height="648" width="864" y="128" x="212"/>
  </g>
  <g id="g726">
   <use id="use728" xlink:href="#a" height="648" width="864" y="128" x="214.39999"/>
  </g>
  <g id="g730">
   <use id="use732" xlink:href="#i" height="648" width="864" y="128" x="220.8"/>
  </g>
  <g id="g734">
   <use id="use736" xlink:href="#z" height="648" width="864" y="128" x="231.2"/>
  </g>
  <g id="g738">
   <use id="use740" xlink:href="#b" height="648" width="864" y="128" x="238.39999"/>
  </g>
  <g id="g742">
   <use id="use744" xlink:href="#g" height="648" width="864" y="128" x="240.8"/>
  </g>
  <g id="g746">
   <use id="use748" xlink:href="#a" height="648" width="864" y="128" x="243.2"/>
  </g>
  <g id="g750">
   <use id="use752" xlink:href="#al" height="648" width="864" y="128" x="249.60001"/>
  </g>
  <g id="g754">
   <use id="use756" xlink:href="#y" height="648" width="864" y="128" x="256.79999"/>
  </g>
  <g id="g758">
   <use id="use760" xlink:href="#s" height="648" width="864" y="128" x="262.39999"/>
  </g>
  <g id="g762">
   <use id="use764" xlink:href="#h" height="648" width="864" y="128" x="268"/>
  </g>
  <g id="g766">
   <use id="use768" xlink:href="#a" height="648" width="864" y="128" x="271.20001"/>
  </g>
  <g id="g770">
   <use id="use772" xlink:href="#d" height="648" width="864" y="128" x="277.60001"/>
  </g>
 </g>
 <path id="path774" d="m292 131.2c1.3242 0 2.3984 1.0742 2.3984 2.4023v11.199c0 1.3242-1.0742 2.3984-2.3984 2.3984h-31.199c-1.3281 0-2.4023-1.0742-2.4023-2.3984v-11.199c0-1.3281 1.0742-2.4023 2.4023-2.4023z" fill="#fff"/>
 <path id="path776" d="m292 131.2c1.3242 0 2.3984 1.0742 2.3984 2.4023v11.199c0 1.3242-1.0742 2.3984-2.3984 2.3984h-31.199c-1.3281 0-2.4023-1.0742-2.4023-2.3984v-11.199c0-1.3281 1.0742-2.4023 2.4023-2.4023zm0 0.8c0.88281 0 1.6016 0.71484 1.6016 1.6016v11.199c0 0.88281-0.71875 1.5977-1.6016 1.5977h-31.199c-0.88281 0-1.6016-0.71485-1.6016-1.5977v-11.199c0-0.88672 0.71875-1.6016 1.6016-1.6016z" fill-rule="evenodd" fill="#dcdcdc"/>
 <g fill="#303030">
  <g id="g778">
   <use id="use780" xlink:href="#e" height="648" width="864" y="142.39999" x="262.39999"/>
  </g>
  <g id="g782">
   <use id="use784" xlink:href="#p" height="648" width="864" y="142.39999" x="268"/>
  </g>
  <g id="g786">
   <use id="use788" xlink:href="#o" height="648" width="864" y="142.39999" x="273.60001"/>
  </g>
  <g id="g790">
   <use id="use792" xlink:href="#n" height="648" width="864" y="142.39999" x="279.20001"/>
  </g>
  <g id="g794">
   <use id="use796" xlink:href="#m" height="648" width="864" y="142.39999" x="284.79999"/>
  </g>
  <g id="g798">
   <use id="use800" xlink:href="#l" height="648" width="864" y="142.39999" x="294.39999"/>
  </g>
 </g>
 <g>
  <path id="path802" d="m311.2 131.2c1.3281 0 2.4023 1.0742 2.4023 2.4023v11.199c0 1.3242-1.0742 2.3984-2.4023 2.3984h-8.8008c-1.33 0-2.4-1.08-2.4-2.4v-11.199c0-1.3281 1.0742-2.4023 2.3984-2.4023z" fill="#fff"/>
  <path id="path804" d="m311.2 131.2c1.3281 0 2.4023 1.0742 2.4023 2.4023v11.199c0 1.3242-1.0742 2.3984-2.4023 2.3984h-8.8008c-1.33 0-2.4-1.08-2.4-2.4v-11.199c0-1.3281 1.0742-2.4023 2.3984-2.4023zm0 0.80078c0.88281 0 1.6016 0.71484 1.6016 1.6016v11.199c0 0.88281-0.71875 1.5977-1.6016 1.5977h-8.8008c-0.88282 0-1.5977-0.71485-1.5977-1.5977v-11.199c0-0.88672 0.71484-1.6016 1.5977-1.6016z" fill-rule="evenodd" fill="#dcdcdc"/>
  <g id="g806" fill="#303030">
   <use id="use808" xlink:href="#ag" height="648" width="864" y="142.39999" x="304"/>
  </g>
 </g>
 <g fill="#979797">
  <g id="g810">
   <use id="use812" xlink:href="#af" height="648" width="864" y="176" x="204.8"/>
  </g>
  <g id="g814">
   <use id="use816" xlink:href="#ae" height="648" width="864" y="176" x="212"/>
  </g>
  <g id="g818">
   <use id="use820" xlink:href="#ad" height="648" width="864" y="176" x="217.60001"/>
  </g>
  <g id="g822">
   <use id="use824" xlink:href="#ac" height="648" width="864" y="176" x="222.39999"/>
  </g>
  <g id="g826">
   <use id="use828" xlink:href="#ab" height="648" width="864" y="176" x="225.60001"/>
  </g>
  <g id="g830">
   <use id="use832" xlink:href="#aa" height="648" width="864" y="176" x="231.2"/>
  </g>
 </g>
</svg>
